<svg width="28" height="46" viewBox="0 0 28 46" fill="none" xmlns="http://www.w3.org/2000/svg" xmlns:xlink="http://www.w3.org/1999/xlink">
<path d="M14,22.21C12.674,22.21 11.402,21.621 10.464,20.573C9.527,19.525 9,18.104 9,16.621C9,15.139 9.527,13.718 10.464,12.67C11.402,11.621 12.674,11.033 14,11.033C15.326,11.033 16.598,11.621 17.536,12.67C18.473,13.718 19,15.139 19,16.621C19,17.355 18.871,18.082 18.619,18.76C18.368,19.438 18,20.054 17.536,20.573C17.071,21.092 16.52,21.504 15.913,21.785C15.307,22.066 14.657,22.21 14,22.21ZM14,0.973C10.287,0.973 6.726,2.621 4.101,5.556C1.475,8.491 0,12.471 0,16.621C0,28.358 14,45.684 14,45.684C14,45.684 28,28.358 28,16.621C28,12.471 26.525,8.491 23.899,5.556C21.274,2.621 17.713,0.973 14,0.973Z" fill="#FFF5F6"/>
</svg>
