<svg width="42" height="42" viewBox="0 0 42 42" fill="none" xmlns="http://www.w3.org/2000/svg" xmlns:xlink="http://www.w3.org/1999/xlink">
<path d="M3.5,21C3.5,16.48 3.503,13.24 3.834,10.776C4.16,8.354 4.777,6.908 5.843,5.843L3.721,3.721C2.005,5.438 1.231,7.623 0.861,10.376C0.497,13.086 0.5,16.564 0.5,21L3.5,21ZM5.843,5.843C6.908,4.777 8.354,4.16 10.775,3.834C13.239,3.503 16.479,3.5 21,3.5L21,0.5C16.563,0.5 13.085,0.497 10.375,0.861C7.622,1.231 5.438,2.005 3.721,3.721L5.843,5.843ZM21,3.5C25.52,3.5 28.76,3.503 31.224,3.834C33.646,4.16 35.092,4.777 36.157,5.843L38.279,3.721C36.562,2.005 34.377,1.231 31.624,0.861C28.914,0.497 25.436,0.5 21,0.5L21,3.5ZM36.157,5.843C37.223,6.908 37.84,8.354 38.166,10.775C38.497,13.239 38.5,16.479 38.5,21L41.5,21C41.5,16.563 41.503,13.085 41.139,10.375C40.769,7.622 39.995,5.438 38.279,3.721L36.157,5.843ZM38.5,21C38.5,25.52 38.497,28.76 38.166,31.224C37.84,33.646 37.223,35.092 36.157,36.157L38.279,38.279C39.995,36.562 40.769,34.377 41.139,31.624C41.503,28.914 41.5,25.436 41.5,21L38.5,21ZM36.157,36.157C35.092,37.223 33.646,37.84 31.225,38.166C28.761,38.497 25.521,38.5 21,38.5L21,41.5C25.437,41.5 28.915,41.503 31.625,41.139C34.378,40.769 36.562,39.995 38.279,38.279L36.157,36.157ZM21,38.5C16.48,38.5 13.24,38.497 10.776,38.166C8.354,37.84 6.908,37.223 5.843,36.157L3.721,38.279C5.438,39.995 7.622,40.769 10.376,41.139C13.086,41.503 16.564,41.5 21,41.5L21,38.5ZM5.843,36.157C4.777,35.092 4.16,33.646 3.834,31.225C3.503,28.761 3.5,25.521 3.5,21L0.5,21C0.5,25.437 0.497,28.915 0.861,31.625C1.231,34.378 2.005,36.562 3.721,38.279L5.843,36.157Z" fill="#FFF5F6"/>
<path d="M12,21L13.5,21L12,21ZM21,12L21,10.5L21,12ZM32.016,11.5C32.844,11.5 33.516,10.828 33.516,10C33.516,9.172 32.844,8.5 32.016,8.5L32.016,11.5ZM31.996,8.5C31.168,8.5 30.496,9.172 30.496,10C30.496,10.828 31.168,11.5 31.996,11.5L31.996,8.5ZM28.5,21C28.5,22.989 27.71,24.897 26.303,26.303L28.425,28.425C30.394,26.455 31.5,23.785 31.5,21L28.5,21ZM26.303,26.303C24.897,27.71 22.989,28.5 21,28.5L21,31.5C23.785,31.5 26.455,30.394 28.425,28.425L26.303,26.303ZM21,28.5C19.011,28.5 17.103,27.71 15.697,26.303L13.575,28.425C15.545,30.394 18.215,31.5 21,31.5L21,28.5ZM15.697,26.303C14.29,24.897 13.5,22.989 13.5,21L10.5,21C10.5,23.785 11.606,26.455 13.575,28.425L15.697,26.303ZM13.5,21C13.5,19.011 14.29,17.103 15.697,15.697L13.575,13.575C11.606,15.545 10.5,18.215 10.5,21L13.5,21ZM15.697,15.697C17.103,14.29 19.011,13.5 21,13.5L21,10.5C18.215,10.5 15.545,11.606 13.575,13.575L15.697,15.697ZM21,13.5C22.989,13.5 24.897,14.29 26.303,15.697L28.425,13.575C26.455,11.606 23.785,10.5 21,10.5L21,13.5ZM26.303,15.697C27.71,17.103 28.5,19.011 28.5,21L31.5,21C31.5,18.215 30.394,15.545 28.425,13.575L26.303,15.697ZM32.016,8.5L31.996,8.5L31.996,11.5L32.016,11.5L32.016,8.5Z" fill="#FFF5F6"/>
</svg>
